# xmcd
#
# Track frame offsets: 
#        150
#        23736
#        38652
#        53139
#        66589
#        79109
#        95521
#        115110
#        129909
#        152006
#        167726
#
# Disc length: 2388 seconds
#
# Revision: 0
# Processed by: cddbd v1.5.2PL0 Copyright (c) Steve Scherf et al.
# Submitted via: ExactAudioCopyFreeDBPlugin 1.0
#
DISCID=8509520b
DTITLE=The Rockingbirds - The Return of the Rockingbirds
DYEAR=2013
DGENRE=Country
TTITLE0=Till something better comes along
TTITLE1=Fanny
TTITLE2=Now I do
TTITLE3=Brand new plan
TTITLE4=Stop the war
TTITLE5=You can't win the heart that you broke
TTITLE6=The lady of the llamas
TTITLE7=Fixing the roof in your dream
TTITLE8=Juliet
TTITLE9=Country humming
TTITLE10=The lonely and the drunk
EXTD=
EXTT0=
EXTT1=
EXTT2=
EXTT3=
EXTT4=
EXTT5=
EXTT6=
EXTT7=
EXTT8=
EXTT9=
EXTT10=
PLAYORDER=
